<svg version="1.1" id="Layer_1" xmlns="http://www.w3.org/2000/svg" xmlns:xlink="http://www.w3.org/1999/xlink" x="0px" y="0px"
	 width="100%" viewBox="0 0 350 350" enable-background="new 0 0 350 350" xml:space="preserve">
<path fill="#7C4894" opacity="1.000000" stroke="none" 
	d="
M5.216879,182.744934 
	C2.847384,136.517731 19.722443,98.595955 52.142933,65.951714 
	C61.200195,78.000092 69.762749,89.390388 78.443733,100.938225 
	C85.231056,95.866615 91.805664,90.953949 98.961090,85.607292 
	C90.176155,74.243996 81.464363,62.975285 71.896255,50.598946 
	C81.504753,46.351067 90.247765,41.381138 99.633675,38.520947 
	C149.473862,23.333015 196.469757,28.702435 238.114502,61.486450 
	C269.555054,86.237419 287.100067,119.295815 290.966888,159.374863 
	C293.066925,181.141785 290.231445,202.251083 282.698975,222.709244 
	C281.434509,226.143509 282.511261,228.330902 284.414612,230.842926 
	C304.537933,257.401581 324.612823,283.996887 344.693176,310.588074 
	C345.877594,312.156494 346.994385,313.775940 348.798889,316.283630 
	C346.337891,316.420929 344.804291,316.579834 343.270538,316.581024 
	C322.272766,316.597504 301.274506,316.522614 280.277649,316.660553 
	C276.761658,316.683655 274.415955,315.607819 272.287628,312.784607 
	C255.941193,291.100891 239.467697,269.512939 223.022186,247.904007 
	C221.939484,246.481369 220.762497,245.130478 219.603790,243.714996 
	C212.460205,249.234238 205.661804,254.486786 198.281372,260.189026 
	C206.898819,271.612244 215.550888,283.081329 224.476013,294.912384 
	C210.279572,303.307892 195.817200,309.558319 180.269257,312.835602 
	C110.463997,327.549438 45.505329,294.388367 16.330057,229.157867 
	C9.813945,214.589050 6.478437,199.124466 5.216879,182.744934 
M244.185226,243.306473 
	C256.640259,259.784607 269.080658,276.273865 281.574158,292.722778 
	C282.755249,294.277802 284.212524,296.736084 285.639404,296.807007 
	C293.644165,297.204834 301.678986,296.998657 310.584442,296.998657 
	C309.043518,294.723236 308.191193,293.335510 307.214478,292.041687 
	C292.360321,272.364838 277.556763,252.648972 262.550995,233.088257 
	C260.305725,230.161453 260.132446,227.863892 261.516724,224.532562 
	C270.071960,203.944183 274.629639,182.661484 272.103973,160.206528 
	C268.353851,126.865074 253.805450,98.922234 228.264450,77.519302 
	C197.981964,52.143074 162.617493,44.043636 123.867332,51.181404 
	C116.614128,52.517441 109.610901,55.210674 101.641167,57.524723 
	C106.431160,63.791664 110.669685,68.886597 114.368057,74.347366 
	C116.533455,77.544647 118.643486,78.075722 122.248337,77.020752 
	C136.365891,72.889236 150.777222,71.982002 165.261230,74.646339 
	C235.011520,87.476974 269.385742,162.139114 233.904373,223.801971 
	C232.350174,226.502991 232.630447,228.143845 234.439636,230.363922 
	C237.699387,234.364059 240.682098,238.589966 244.185226,243.306473 
M147.510483,297.066742 
	C163.923035,297.190216 179.800034,294.614380 195.692352,287.932312 
	C191.314301,282.240387 187.059479,277.334106 183.554825,271.940399 
	C181.067429,268.112244 178.617172,267.792145 174.469223,268.968475 
	C133.960709,280.456635 89.544518,264.713135 66.446800,229.474243 
	C42.916031,193.574677 42.027767,156.537384 64.327576,119.386818 
	C65.032066,118.213165 66.021881,116.164581 65.535583,115.485054 
	C60.946468,109.072495 56.065212,102.869019 50.786453,95.976196 
	C47.662830,100.594170 44.861248,104.299637 42.514111,108.273521 
	C18.858238,148.324768 16.795336,189.878647 38.414886,230.708984 
	C60.990726,273.345337 97.962318,295.333649 147.510483,297.066742 
M91.998062,230.503662 
	C116.284920,254.593552 150.876801,257.534515 167.103378,250.132233 
	C137.719574,211.224579 108.382080,172.378235 78.631714,132.985214 
	C77.517082,134.771698 76.761299,135.798309 76.194130,136.920273 
	C69.574356,150.015213 67.141678,163.970108 67.889381,178.522964 
	C68.930748,198.791412 77.722412,215.545563 91.998062,230.503662 
M211.633789,122.901436 
	C188.944199,91.999138 147.578888,87.933990 131.075455,95.195366 
	C160.425735,133.411011 189.743668,171.584518 219.255890,210.011017 
	C232.642990,188.437683 233.967896,152.628891 211.633789,122.901436 
M107.669212,139.824448 
	C111.788094,145.264694 115.917465,150.697037 120.024109,156.146515 
	C141.260376,184.326813 162.526520,212.484802 183.664505,240.738663 
	C185.638321,243.376923 187.222321,244.364349 190.020218,242.125046 
	C194.812042,238.289917 199.620575,234.469009 204.551575,230.816956 
	C207.536667,228.606094 207.458313,226.679199 205.222610,223.841553 
	C197.601044,214.167862 190.222855,204.302750 182.725616,194.530762 
	C159.829178,164.687164 136.888214,134.877609 114.072212,104.972679 
	C112.037926,102.306328 110.255356,101.589569 107.539299,103.619156 
	C102.765564,107.186356 97.977272,110.734138 93.186317,114.278221 
	C90.739716,116.088066 91.033371,117.870300 92.794380,120.126534 
	C97.708763,126.422951 102.439369,132.862808 107.669212,139.824448 
z"/>
</svg>